<?xml version="1.0" encoding="UTF-8"?>
<svg width="69px" height="44px" viewBox="0 0 69 44" version="1.1" xmlns="http://www.w3.org/2000/svg" xmlns:xlink="http://www.w3.org/1999/xlink">
    <!-- Generator: Sketch 49.2 (51160) - http://www.bohemiancoding.com/sketch -->
    <title>Group Icon</title>
    <desc>Created with Sketch.</desc>
    <defs></defs>
    <g id="Page-1" stroke="none" stroke-width="1" fill="none" fill-rule="evenodd">
        <g id="Page-9" transform="translate(-731.000000, -159.000000)" fill="#FFFFFF" stroke="#000000" stroke-width="1.5">
            <g id="Breadcrumb" transform="translate(177.000000, 152.000000)">
                <g id="Group-Icon" transform="translate(555.000000, 8.000000)">
                    <path d="M64.0330144,35.7383937 L44.0000062,35.7383999 C42.3431485,35.7383999 41,34.3952514 41,32.7383937 C41,31.9361895 41.3212841,31.1674015 41.8920914,30.6037433 C42.9056542,29.602875 44.0624645,28.876206 45.3625225,28.4237364 C47.4013175,27.6965446 48.7894124,26.9586699 49.5268488,26.2100901 C50.2642853,25.4615103 50.632998,24.4455959 50.632998,23.1623162 C50.632998,22.6917804 50.3944192,22.1677824 49.9172544,21.5903066 C49.4400897,21.0128307 49.0930659,20.2321807 48.8761728,19.248333 C48.8327942,18.991677 48.7351938,18.799188 48.5833687,18.67086 C48.4315435,18.542532 48.2797206,18.4569814 48.1278955,18.4142054 C47.9760703,18.3714294 47.4229967,17.0881594 47.3796181,16.4892956 C47.3796181,16.1470877 47.4338405,15.8690479 47.5422871,15.655168 C47.6507336,15.441288 47.748334,15.312962 47.8350913,15.270186 L47.9652265,15.1418587 C47.791712,14.072459 47.6615781,13.1314014 47.5748209,12.3186576 C47.4880636,11.163706 47.9326878,9.96599627 48.9087066,8.72549263 C49.8847255,7.48498899 51.5873107,7 54.0165132,7 C56.4457157,7 58.1591453,7.48498899 59.1568535,8.72549263 C60.1545617,9.96599627 60.5883413,11.163706 60.4582055,12.3186576 L60.0677999,15.1418587 C60.4582074,15.3129626 60.6534083,15.7621038 60.6534083,16.4892956 C60.6100297,17.0881594 60.056956,18.3714294 59.9051309,18.4142054 C59.7533057,18.4569814 59.6014829,18.542532 59.4496577,18.67086 C59.2978325,18.799188 59.2002321,18.991677 59.1568535,19.248333 C58.983339,20.2749567 58.6471598,21.0663006 58.1483057,21.6223884 C57.6494516,22.1784762 57.4000283,22.6917804 57.4000283,23.1623162 C57.4000283,24.4455959 57.7795855,25.4615103 58.5387113,26.2100901 C59.2978371,26.9586699 60.6750875,27.6965446 62.6705038,28.4237364 C63.9705557,28.8762039 65.1273613,29.6028681 66.1409207,30.6037292 L66.1409308,30.6037189 C67.3198712,31.767889 67.3318448,33.6673554 66.1676747,34.8462957 C65.6040147,35.4171071 64.8352228,35.7383937 64.0330144,35.7383937 Z" id="Man-Copy"></path>
                    <path d="M23.0330144,35.7383937 L3.00000621,35.7383999 C1.34314853,35.7383999 -4.92314522e-14,34.3952514 -4.79616347e-14,32.7383937 C-4.73475426e-14,31.9361895 0.321284067,31.1674015 0.892091378,30.6037433 C1.90565415,29.602875 3.06246453,28.876206 4.3625225,28.4237364 C6.40131747,27.6965446 7.78941236,26.9586699 8.52684884,26.2100901 C9.26428532,25.4615103 9.63299802,24.4455959 9.63299802,23.1623162 C9.63299802,22.6917804 9.39441921,22.1677824 8.91725443,21.5903066 C8.44008966,21.0128307 8.09306593,20.2321807 7.87617285,19.248333 C7.83279423,18.991677 7.73519381,18.799188 7.58336865,18.67086 C7.4315435,18.542532 7.27972062,18.4569814 7.12789546,18.4142054 C6.9760703,18.3714294 6.42299669,17.0881594 6.37961807,16.4892956 C6.37961807,16.1470877 6.43384053,15.8690479 6.54228707,15.655168 C6.65073361,15.441288 6.74833403,15.312962 6.83509127,15.270186 L6.96522646,15.1418587 C6.791712,14.072459 6.6615781,13.1314014 6.57482087,12.3186576 C6.48806364,11.163706 6.93268778,9.96599627 7.90870665,8.72549263 C8.88472552,7.48498899 10.5873107,7 13.0165132,7 C15.4457157,7 17.1591453,7.48498899 18.1568535,8.72549263 C19.1545617,9.96599627 19.5883413,11.163706 19.4582055,12.3186576 L19.0677999,15.1418587 C19.4582074,15.3129626 19.6534083,15.7621038 19.6534083,16.4892956 C19.6100297,17.0881594 19.056956,18.3714294 18.9051309,18.4142054 C18.7533057,18.4569814 18.6014829,18.542532 18.4496577,18.67086 C18.2978325,18.799188 18.2002321,18.991677 18.1568535,19.248333 C17.983339,20.2749567 17.6471598,21.0663006 17.1483057,21.6223884 C16.6494516,22.1784762 16.4000283,22.6917804 16.4000283,23.1623162 C16.4000283,24.4455959 16.7795855,25.4615103 17.5387113,26.2100901 C18.2978371,26.9586699 19.6750875,27.6965446 21.6705038,28.4237364 C22.9705557,28.8762039 24.1273613,29.6028681 25.1409207,30.6037292 L25.1409308,30.6037189 C26.3198712,31.767889 26.3318448,33.6673554 25.1676747,34.8462957 C24.6040147,35.4171071 23.8352228,35.7383937 23.0330144,35.7383937 Z" id="Man-Copy-2"></path>
                    <path d="M51.00343,41.999991 L15.9962265,41.9999879 C14.3393739,41.9999879 12.9962296,40.6568435 12.9962296,38.999991 C12.9962296,38.4206035 13.1640038,37.8536115 13.4792827,37.3675157 C15.426712,34.3649772 17.887484,32.3457778 20.8615988,31.3099175 C23.839042,30.2471564 25.8662069,29.1687825 26.9431545,28.0747637 C28.020102,26.9807449 28.5585677,25.4960273 28.5585677,23.6205664 C28.5585677,22.9328974 28.2101487,22.1670957 27.5133003,21.3231383 C26.8164519,20.4791809 26.3096607,19.3382927 25.9929114,17.9004394 C25.9295615,17.5253472 25.7870265,17.2440323 25.565302,17.0564862 C25.3435775,16.8689401 25.1218564,16.7439113 24.9001319,16.6813959 C24.6784074,16.6188805 23.8707022,14.7434337 23.8073523,13.8682187 C23.8073523,13.3680958 23.8865385,12.961752 24.0449131,12.6491752 C24.2032877,12.3365984 24.3458228,12.1490551 24.4725225,12.0865397 L24.6625711,11.8989946 C24.4091717,10.3361105 24.219125,8.9607932 24.0924253,7.77300132 C23.9657255,6.08508654 24.6150518,4.33468265 26.0404235,2.52173715 C27.4657953,0.708791643 29.9522398,0 33.4998317,0 C37.0474235,0 39.5497053,0.708791643 41.0067519,2.52173715 C42.4637986,4.33468265 43.0972876,6.08508654 42.9072381,7.77300132 L42.3370922,11.8989946 C42.9072409,12.149056 43.192311,12.8054575 43.192311,13.8682187 C43.1289611,14.7434337 42.3212559,16.6188805 42.0995315,16.6813959 C41.877807,16.7439113 41.6560858,16.8689401 41.4343613,17.0564862 C41.2126368,17.2440323 41.0701018,17.5253472 41.0067519,17.9004394 C40.7533525,19.4008081 40.2623985,20.5573249 39.5338752,21.3700246 C38.8053518,22.1827243 38.4410956,22.9328974 38.4410956,23.6205664 C38.4410956,25.4960273 38.9953985,26.9807449 40.104021,28.0747637 C41.2126435,29.1687825 43.2239712,30.2471564 46.1380645,31.3099175 C49.1121767,32.3457769 51.5729471,34.3649738 53.5203756,37.367508 L53.5203796,37.3675054 C54.4219739,38.7575783 54.0259837,40.6153416 52.6359107,41.5169358 C52.1498135,41.8322161 51.5828195,41.999991 51.00343,41.999991 Z" id="Man"></path>
                </g>
            </g>
        </g>
    </g>
</svg>