<?xml version="1.0" encoding="UTF-8"?>
<svg width="55px" height="50px" viewBox="0 0 55 50" version="1.1" xmlns="http://www.w3.org/2000/svg" xmlns:xlink="http://www.w3.org/1999/xlink">
    <!-- Generator: Sketch 49.2 (51160) - http://www.bohemiancoding.com/sketch -->
    <title>Map</title>
    <desc>Created with Sketch.</desc>
    <defs></defs>
    <g id="Page-1" stroke="none" stroke-width="1" fill="none" fill-rule="evenodd">
        <g id="Page-9" transform="translate(-215.000000, -153.000000)" stroke="#000000">
            <g id="Breadcrumb" transform="translate(177.000000, 152.000000)">
                <g id="Map" transform="translate(39.000000, 2.000000)">
                    <polygon id="Path-15" fill="#FFFFFF" points="0 48 12.72 9 41.87 17.5479452 53 48 38.16 43.7260274 26.5 48 14.31 43.7260274"></polygon>
                    <path d="M35,16 L38,44" id="Path-16"></path>
                    <path d="M26.5,48 L26.5,13" id="Path-17"></path>
                    <path d="M14,44 L18,11" id="Path-18"></path>
                    <polyline id="Path-19" points="6 31 16.6493506 26 26.7662338 31 36.3506494 26 47 31"></polyline>
                    <path d="M15,32 C18,32 26,17.5129562 26,11.2820513 C26,5.05114641 21.0751322,0 15,0 C8.92486775,0 4,5.05114641 4,11.2820513 C4,17.5129562 12,32 15,32 Z" id="Oval-2" fill="#FFFFFF"></path>
                    <circle id="Oval-4" cx="15" cy="10" r="5"></circle>
                </g>
            </g>
        </g>
    </g>
</svg>